# xmcd
#
# Track frame offsets:
#	150
#	3295
#	17433
#	32223
#	49506
#	72114
#	90408
#	104946
#	114899
#	139064
#	152963
#	169670
#	182952
#	196467
#	222219
#
# Disc length: 3181 seconds
#
# Revision: 0
# Processed by: cddbd v1.4PL0 Copyright (c) Steve Scherf et al.
# Submitted via: EasyCDDAExtractor 4.6.0.1
#
DISCID=c60c6b0f
DTITLE=Ryan Adams - Heartbreaker
DYEAR=2000
DGENRE=Country and Western
TTITLE0=(Argument with David Rawlings 
TTITLE1=To be young (is to be sad, is 
TTITLE2=My winding wheel
TTITLE3=AMY
TTITLE4=Oh my sweet Carolina
TTITLE5=Bartering lines
TTITLE6=Call me on your way back home
TTITLE7=Damn, Sam (I love a woman that
TTITLE8=Come pick me up
TTITLE9=To be the one
TTITLE10=Why do they leave?
TTITLE11=Shakedown on 9th street
TTITLE12=Don't ask for the water
TTITLE13=In my time of need
TTITLE14=Sweet lil gal (23rd/1st)
EXTD=
EXTT0=
EXTT1=
EXTT2=
EXTT3=
EXTT4=
EXTT5=
EXTT6=
EXTT7=
EXTT8=
EXTT9=
EXTT10=
EXTT11=
EXTT12=
EXTT13=
EXTT14=
PLAYORDER=
